<svg width="215" height="45" viewBox="0 0 215 45" fill="none" xmlns="http://www.w3.org/2000/svg">
<path d="M19.2323 1.628H26.0483V22.892C26.0483 26.764 24.9123 29.692 22.6403 31.676C20.3683 33.628 17.1363 34.604 12.9443 34.604C9.07226 34.604 6.00026 33.676 3.72826 31.82C1.48826 29.964 0.368259 27.116 0.368259 23.276V1.628H7.13626V22.652C7.13626 24.636 7.63226 26.204 8.62426 27.356C9.61626 28.508 11.0243 29.084 12.8483 29.084C17.1043 29.084 19.2323 27.02 19.2323 22.892V1.628ZM36.2693 20.156C35.1813 20.156 34.2373 19.756 33.4373 18.956C32.6373 18.156 32.2373 17.212 32.2373 16.124C32.2373 15.004 32.6373 14.06 33.4373 13.292C34.2373 12.492 35.1813 12.092 36.2693 12.092C37.3893 12.092 38.3333 12.492 39.1013 13.292C39.9013 14.06 40.3013 15.004 40.3013 16.124C40.3013 17.212 39.9013 18.156 39.1013 18.956C38.3333 19.756 37.3893 20.156 36.2693 20.156ZM64.2788 11.036C64.1188 9.404 63.5268 8.188 62.5028 7.388C61.4788 6.588 59.9588 6.188 57.9428 6.188C56.0548 6.188 54.6308 6.508 53.6708 7.148C52.7108 7.788 52.2308 8.716 52.2308 9.932C52.2308 10.956 52.5988 11.772 53.3348 12.38C54.1028 12.988 55.3828 13.516 57.1748 13.964C58.9988 14.412 60.7268 14.86 62.3588 15.308C64.0228 15.724 65.4468 16.204 66.6308 16.748C67.3348 17.068 67.9908 17.436 68.5988 17.852C69.2068 18.268 69.7348 18.78 70.1828 19.388C70.6308 19.996 70.9828 20.716 71.2388 21.548C71.4948 22.38 71.6228 23.356 71.6228 24.476C71.6228 26.236 71.3028 27.756 70.6628 29.036C70.0548 30.284 69.1748 31.324 68.0228 32.156C66.9028 32.988 65.5588 33.596 63.9908 33.98C62.4548 34.396 60.7588 34.604 58.9028 34.604C56.9188 34.604 55.1108 34.38 53.4788 33.932C51.8468 33.516 50.4388 32.86 49.2548 31.964C48.0708 31.068 47.1428 29.964 46.4708 28.652C45.7988 27.308 45.4468 25.74 45.4148 23.948H51.8468C51.9108 25.58 52.5668 26.876 53.8148 27.836C55.0948 28.764 56.8068 29.228 58.9508 29.228C60.9348 29.228 62.4548 28.844 63.5108 28.076C64.5988 27.276 65.1428 26.156 65.1428 24.716C65.1428 24.236 65.0628 23.804 64.9028 23.42C64.7748 23.036 64.5188 22.684 64.1348 22.364C63.7828 22.012 63.2868 21.708 62.6468 21.452C62.0068 21.164 61.1908 20.908 60.1988 20.684C58.2148 20.236 56.5348 19.852 55.1588 19.532C53.8148 19.18 52.5828 18.748 51.4628 18.236C49.7348 17.468 48.4068 16.476 47.4788 15.26C46.5828 14.012 46.1348 12.38 46.1348 10.364C46.1348 8.924 46.3748 7.612 46.8548 6.428C47.3348 5.212 48.0548 4.172 49.0148 3.308C50.0068 2.444 51.2228 1.772 52.6628 1.292C54.1348 0.811998 55.8468 0.571998 57.7988 0.571998C59.8148 0.571998 61.6068 0.827998 63.1748 1.34C64.7428 1.852 66.0548 2.572 67.1108 3.5C68.1988 4.428 69.0308 5.532 69.6068 6.812C70.2148 8.092 70.5508 9.5 70.6148 11.036H64.2788ZM89.2136 17.948H95.0216V24.668C95.0216 25.916 94.8296 27.116 94.4456 28.268C94.0936 29.388 93.5176 30.396 92.7176 31.292C91.9496 32.156 90.9576 32.844 89.7416 33.356C88.5576 33.868 87.1336 34.124 85.4696 34.124C83.7416 34.124 82.2696 33.868 81.0536 33.356C79.8376 32.844 78.8296 32.156 78.0296 31.292C77.2616 30.428 76.7016 29.42 76.3496 28.268C75.9976 27.116 75.8216 25.9 75.8216 24.62V3.5H81.9656V9.884H95.0216V14.3H81.9656V23.996C81.9656 25.5 82.2376 26.668 82.7816 27.5C83.3576 28.3 84.2856 28.7 85.5656 28.7C86.8136 28.7 87.7256 28.3 88.3016 27.5C88.9096 26.7 89.2136 25.564 89.2136 24.092V17.948ZM100.116 33.5V9.884H106.356V33.5H100.116ZM100.116 7.052V1.244H106.356V7.052H100.116ZM122.742 28.796C126.326 28.796 128.118 26.364 128.118 21.5C128.118 19.388 127.622 17.676 126.63 16.364C125.638 15.02 124.358 14.348 122.79 14.348C121.286 14.348 120.022 14.972 118.998 16.22C118.006 17.468 117.51 19.1 117.51 21.116C117.51 26.236 119.254 28.796 122.742 28.796ZM111.606 44.684V9.884H117.606L117.654 12.764C119.094 10.428 121.286 9.26 124.23 9.26C125.702 9.26 127.062 9.548 128.31 10.124C129.59 10.7 130.678 11.532 131.574 12.62C132.47 13.708 133.174 15.036 133.686 16.604C134.198 18.172 134.454 19.948 134.454 21.932C134.454 23.724 134.23 25.372 133.782 26.876C133.366 28.348 132.742 29.628 131.91 30.716C131.078 31.804 130.054 32.652 128.838 33.26C127.654 33.836 126.294 34.124 124.758 34.124C121.846 34.124 119.51 32.892 117.75 30.428V44.684H111.606ZM154.683 19.388C154.651 18.524 154.491 17.772 154.203 17.132C153.947 16.46 153.595 15.916 153.147 15.5C152.699 15.052 152.187 14.732 151.611 14.54C151.035 14.316 150.443 14.204 149.835 14.204C148.587 14.204 147.499 14.668 146.571 15.596C145.675 16.492 145.163 17.756 145.035 19.388H154.683ZM144.843 23.324C144.939 25.116 145.451 26.54 146.379 27.596C147.339 28.652 148.587 29.18 150.123 29.18C151.147 29.18 152.043 28.956 152.811 28.508C153.611 28.028 154.123 27.372 154.347 26.54H160.779C160.043 28.972 158.763 30.844 156.939 32.156C155.115 33.468 152.939 34.124 150.411 34.124C142.539 34.124 138.603 29.836 138.603 21.26C138.603 19.436 138.859 17.788 139.371 16.316C139.883 14.844 140.619 13.58 141.579 12.524C142.571 11.468 143.771 10.668 145.179 10.124C146.587 9.548 148.203 9.26 150.027 9.26C153.675 9.26 156.427 10.428 158.283 12.764C160.171 15.1 161.115 18.62 161.115 23.324H144.843ZM180.792 33.5V19.196C180.792 17.372 180.488 16.14 179.88 15.5C179.272 14.86 178.232 14.54 176.76 14.54C173.528 14.54 171.912 16.348 171.912 19.964V33.5H165.672V9.884H171.624V13.34C172.36 11.996 173.336 10.988 174.552 10.316C175.768 9.612 177.336 9.26 179.256 9.26C180.376 9.26 181.416 9.436 182.376 9.788C183.336 10.108 184.152 10.604 184.824 11.276C185.528 11.948 186.072 12.78 186.456 13.772C186.872 14.732 187.08 15.852 187.08 17.132V33.5H180.792ZM203.396 29.036C204.9 29.036 206.148 28.412 207.14 27.164C208.164 25.916 208.676 24.284 208.676 22.268C208.676 17.148 206.932 14.588 203.444 14.588C199.86 14.588 198.068 17.02 198.068 21.884C198.068 23.996 198.564 25.724 199.556 27.068C200.548 28.38 201.828 29.036 203.396 29.036ZM208.58 33.5L208.532 30.62C207.092 32.956 204.9 34.124 201.956 34.124C200.452 34.124 199.076 33.836 197.828 33.26C196.58 32.684 195.508 31.852 194.612 30.764C193.716 29.676 193.012 28.348 192.5 26.78C191.988 25.212 191.732 23.436 191.732 21.452C191.732 19.66 191.94 18.028 192.356 16.556C192.804 15.052 193.444 13.756 194.276 12.668C195.108 11.58 196.116 10.748 197.3 10.172C198.516 9.564 199.892 9.26 201.428 9.26C204.34 9.26 206.676 10.492 208.436 12.956V1.244H214.58V33.5H208.58Z" fill="#FF6600"/>
</svg>
